# xmcd
#
# Track frame offsets:
# 150
# 14795
# 29482
# 50464
# 73877
# 90616
# 99720
# 119515
# 134093
# 154258
# 173249
# 188757
# 204181
# 229665
#
# Disc length: 3348 seconds
#
# Revision: 0
# Processed by: cddbd v1.5.2PL0 Copyright (c) Steve Scherf et al.
# Submitted via: Audion 3.0.2 (http://www.panic.com/audion/)
#
DISCID=cb0d120e
DTITLE=Sergio Marino - Meteore
DYEAR=1900
DGENRE=
TTITLE0=Una storia nuova
TTITLE1=Tango per Laura
TTITLE2=Dimmi se
TTITLE3=Nudo
TTITLE4=Anima fredda
TTITLE5=Il mio amico musicista
TTITLE6=Il volo
TTITLE7=Poveri in canna
TTITLE8=Respiro
TTITLE9=Senza riferimenti
TTITLE10=Sempre e solo tu
TTITLE11=Meteore perse
TTITLE12=Dream song
TTITLE13=Il mistero della notte
EXTD=
EXTT0=
EXTT1=
EXTT2=
EXTT3=
EXTT4=
EXTT5=
EXTT6=
EXTT7=
EXTT8=
EXTT9=
EXTT10=
EXTT11=
EXTT12=
EXTT13=
PLAYORDER=
